<svg xmlns="http://www.w3.org/2000/svg" width="15.425" height="15.375" viewBox="0 0 15.425 15.375">
  <g id="Group_51" data-name="Group 51" transform="translate(-141.975 -4008.613)">
    <g id="Group_50" data-name="Group 50">
      <path id="Path_226" data-name="Path 226" d="M155.7,4020.391h1.7a5.8,5.8,0,0,1-2.455,2.542,9.375,9.375,0,0,1-4.623,1.055,10.737,10.737,0,0,1-4.558-.892,6,6,0,0,1-2.852-2.63,7.856,7.856,0,0,1-.937-3.784,8.539,8.539,0,0,1,1.064-4.186,6.949,6.949,0,0,1,2.91-2.908,8.9,8.9,0,0,1,4.222-.975,7.9,7.9,0,0,1,3.582.784,5.51,5.51,0,0,1,2.392,2.227,6.217,6.217,0,0,1,.829,3.154,5.923,5.923,0,0,1-1.255,3.685,4.852,4.852,0,0,1-4.036,2.079,1.758,1.758,0,0,1-1-.233,1.116,1.116,0,0,1-.447-.678,3.046,3.046,0,0,1-2.176.911,2.905,2.905,0,0,1-2.2-.918,3.366,3.366,0,0,1-.878-2.431,5.979,5.979,0,0,1,1.056-3.431,3.834,3.834,0,0,1,3.28-1.887,2.309,2.309,0,0,1,2.1,1.088l.2-.887h2.113l-1.209,5.731a5,5,0,0,0-.111.706.413.413,0,0,0,.092.3.281.281,0,0,0,.22.1,1.822,1.822,0,0,0,.993-.463,4.442,4.442,0,0,0,1.317-1.631,4.724,4.724,0,0,0,.5-2.118,4.308,4.308,0,0,0-1.423-3.29,5.612,5.612,0,0,0-3.974-1.323,7.128,7.128,0,0,0-3.673.884,5.6,5.6,0,0,0-2.273,2.486,7.688,7.688,0,0,0-.76,3.338,5.755,5.755,0,0,0,.849,3.07,4.948,4.948,0,0,0,2.392,2.018,10.2,10.2,0,0,0,6.807.1A5.1,5.1,0,0,0,155.7,4020.391Zm-8.643-3.287a2.258,2.258,0,0,0,.413,1.5,1.29,1.29,0,0,0,1.018.479,1.7,1.7,0,0,0,.853-.223,2.165,2.165,0,0,0,.6-.5,4.2,4.2,0,0,0,.731-1.421,5.648,5.648,0,0,0,.306-1.745,2.045,2.045,0,0,0-.418-1.386,1.341,1.341,0,0,0-1.06-.484,1.845,1.845,0,0,0-1.269.53,3.262,3.262,0,0,0-.88,1.516A6.091,6.091,0,0,0,147.054,4017.1Z" fill="#f2f2f2"/>
    </g>
  </g>
</svg>
