<svg xmlns="http://www.w3.org/2000/svg" width="11.528" height="15.375" viewBox="0 0 11.528 15.375">
  <g id="Group_54" data-name="Group 54" transform="translate(-143.924 -4046.537)">
    <g id="Group_53" data-name="Group 53">
      <path id="Path_227" data-name="Path 227" d="M154.24,4061.347c-1.64,1.064-3.936.5-5.345-.676a16.187,16.187,0,0,1-4.754-7.71,5.725,5.725,0,0,1,.683-4.726,3.369,3.369,0,0,1,1.517-1.263c.194-.08.364-.208.554-.3a.991.991,0,0,1,1.455.5,16.423,16.423,0,0,1,.93,2.346,1.427,1.427,0,0,1-.914,1.779,2.178,2.178,0,0,0-.955.529,1.364,1.364,0,0,0-.391.885,3.872,3.872,0,0,0,.56,1.886c.218.362.347.782.585,1.12a18.034,18.034,0,0,0,1.408,1.756,1.1,1.1,0,0,0,1.555.131,8.7,8.7,0,0,1,.847-.537,1.3,1.3,0,0,1,1.451.112,7.087,7.087,0,0,1,1.894,2.384.892.892,0,0,1-.267,1.209C154.795,4060.977,154.514,4061.156,154.24,4061.347Z" fill="#f2f2f2" fill-rule="evenodd"/>
    </g>
  </g>
</svg>
