<svg xmlns="http://www.w3.org/2000/svg" width="56.892" height="60.083" viewBox="0 0 56.892 60.083">
  <g id="Group_241" data-name="Group 241" transform="translate(-1161.596 -1111.25)">
    <g id="Group_240" data-name="Group 240">
      <path id="Path_427" data-name="Path 427" d="M1217.314,1168.986h-2.574v-37.372a3.158,3.158,0,0,0-3.155-3.154h-5.752a3.158,3.158,0,0,0-3.155,3.154v37.372h-6.536v-20.439a3.158,3.158,0,0,0-3.154-3.155h-5.753a3.159,3.159,0,0,0-3.155,3.155v20.439h-6.535V1158.4a3.158,3.158,0,0,0-3.155-3.155h-5.753a3.158,3.158,0,0,0-3.155,3.155v10.585h-2.713a1.174,1.174,0,0,0,0,2.347h54.545a1.174,1.174,0,1,0,0-2.347Zm-42.116,0h-7.369V1158.4a.808.808,0,0,1,.808-.808h5.753a.809.809,0,0,1,.808.808Zm18.6,0h-7.368v-20.439a.81.81,0,0,1,.808-.808h5.753a.809.809,0,0,1,.807.808Zm18.6,0h-7.368v-37.372a.808.808,0,0,1,.808-.807h5.752a.808.808,0,0,1,.808.807Zm0,0" fill="#1b252f"/>
      <path id="Path_428" data-name="Path 428" d="M1214.737,1112.484a1.169,1.169,0,0,0-1.231-1.231c-.019,0-.037,0-.057,0h-7.1a1.174,1.174,0,0,0,0,2.347h4.384l-11.6,11.6-4.374-4.375a1.176,1.176,0,0,0-1.66,0l-21.1,21.1a1.173,1.173,0,0,0,1.659,1.66l20.267-20.266,4.375,4.374a1.173,1.173,0,0,0,1.659,0l12.431-12.431v3.968a1.174,1.174,0,1,0,2.347,0v-6.683c0-.019,0-.038,0-.057Zm0,0" fill="#ffcc02"/>
    </g>
    <path id="Path_429" data-name="Path 429" d="M1170.05,1146.844a1.174,1.174,0,1,1-1.174-1.174,1.174,1.174,0,0,1,1.174,1.174Zm0,0" fill="#ffcc02"/>
  </g>
</svg>
