<svg xmlns="http://www.w3.org/2000/svg" width="19.727" height="16.682" viewBox="0 0 19.727 16.682">
  <path id="Path_202" data-name="Path 202" d="M161.517,1373.015c.177.346.338.676.514,1,.069.126,0,.184-.073.261-1.071,1.1-2.168,2.174-3.2,3.3a50.023,50.023,0,0,0-6.439,8.534,24.249,24.249,0,0,0-1.668,3.412c-.018.047-.041.091-.079.171l-8.235-8.332,2.094-1.6c.8.612,1.619,1.216,2.413,1.847s1.56,1.282,2.36,1.943l.394-.436a72.853,72.853,0,0,1,7.191-7.04,21.15,21.15,0,0,1,3.981-2.744c.2-.1.4-.185.6-.274A1.359,1.359,0,0,1,161.517,1373.015Z" transform="translate(-142.333 -1373.015)" fill="#ffcc02"/>
</svg>
