<svg xmlns="http://www.w3.org/2000/svg" width="60.084" height="60.083" viewBox="0 0 60.084 60.083">
  <g id="Group_236" data-name="Group 236" transform="translate(-811.355 -1111.25)">
    <g id="Group_235" data-name="Group 235">
      <path id="Path_408" data-name="Path 408" d="M870.667,1151.636l-9.029-9.031a19.549,19.549,0,0,0,.783-22.547.88.88,0,0,0-1.471.968,17.8,17.8,0,1,1-2.3-2.819l.048.049a.881.881,0,0,0,1.25-1.241l-.051-.051a19.561,19.561,0,0,0-27.633,0q-.359.359-.7.732H812.236a.881.881,0,0,0-.881.88v3.893a.881.881,0,0,0,1.761,0v-3.012h17.042a19.4,19.4,0,0,0-1.735,2.961H817.458a.88.88,0,0,0,0,1.76H827.7a19.471,19.471,0,0,0-.632,2.152h-9.6a.88.88,0,1,0,0,1.76h9.279a19.883,19.883,0,0,0-.177,2.151h-9.1a.88.88,0,0,0,0,1.761h9.133a19.545,19.545,0,0,0,1.97,7.434h-1.48a.879.879,0,0,0-.88.88v26.056a.88.88,0,0,0,.88.881h7.041a.881.881,0,0,0,.88-.881V1146.88a19.322,19.322,0,0,0,2.464,1.443v18.049a.882.882,0,0,0,.88.881h7.042a.881.881,0,0,0,.88-.881v-16.059a19.87,19.87,0,0,0,2.054-.126v13.595a.88.88,0,1,0,1.76,0V1149.9a19.405,19.405,0,0,0,7.822-3.563l9.028,9.029a2.641,2.641,0,0,0,3.735-3.734Zm-37.425,13.856h-5.281V1141.2h1.586a19.58,19.58,0,0,0,2.718,3.4q.477.476.977.911Zm5.985,0v-16.411a19.62,19.62,0,0,0,5.281,1.17v15.241Zm30.2-11.367a.881.881,0,0,1-1.246,0l-8.916-8.916q.324-.3.637-.608t.608-.637l8.916,8.917a.881.881,0,0,1,0,1.244Zm0,0" fill="#1b252f"/>
    </g>
    <path id="Path_409" data-name="Path 409" d="M849.2,1166.7a.88.88,0,0,0-.88.881v1.995H813.116v-43.29a.881.881,0,0,0-1.761,0v44.17a.88.88,0,0,0,.881.88H849.2a.879.879,0,0,0,.88-.88v-2.875a.88.88,0,0,0-.88-.881Zm0,0" fill="#1b252f"/>
    <path id="Path_410" data-name="Path 410" d="M815.169,1147.358v19.014a.88.88,0,0,0,.88.88h7.042a.88.88,0,0,0,.88-.88v-19.014a.88.88,0,0,0-.88-.88h-7.042a.88.88,0,0,0-.88.88Zm1.761.881h5.281v17.252H816.93Zm0,0" fill="#ffcc02"/>
    <path id="Path_411" data-name="Path 411" d="M824.039,1135.915a.88.88,0,0,0,0-1.761h-6.581a.88.88,0,0,0,0,1.761Zm0,0" fill="#ffcc02"/>
    <path id="Path_412" data-name="Path 412" d="M846.082,1114.769a15.994,15.994,0,1,0,11.327,4.685,15.911,15.911,0,0,0-11.327-4.685Zm10.082,26.1a14.279,14.279,0,1,1,4.169-10.083,14.159,14.159,0,0,1-4.169,10.083Zm0,0" fill="#ffcc02"/>
  </g>
</svg>
