<svg xmlns="http://www.w3.org/2000/svg" width="38.25" height="38.25" viewBox="0 0 38.25 38.25">
  <g id="Group_57" data-name="Group 57" transform="translate(-189.333 -4084.461)">
    <path id="Path_229" data-name="Path 229" d="M211.542,4122.462c-.159.026-.319.05-.48.071.161-.021.321-.045.48-.071Zm0,0" fill="#fff"/>
    <path id="Path_230" data-name="Path 230" d="M211.925,4122.4l-.229.04.229-.04Zm0,0" fill="#fff"/>
    <path id="Path_231" data-name="Path 231" d="M210.635,4122.587c-.186.021-.374.039-.562.055.188-.016.376-.034.562-.055Zm0,0" fill="#fff"/>
    <path id="Path_232" data-name="Path 232" d="M211,4122.542c-.089.012-.179.023-.269.033.09-.01.18-.021.269-.033Zm0,0" fill="#fff"/>
    <path id="Path_233" data-name="Path 233" d="M212.445,4122.293l-.2.042.2-.042Zm0,0" fill="#fff"/>
    <path id="Path_234" data-name="Path 234" d="M213.737,4121.972l-.162.045.162-.045Zm0,0" fill="#fff"/>
    <path id="Path_235" data-name="Path 235" d="M213.347,4122.079l-.178.046.178-.046Zm0,0" fill="#fff"/>
    <path id="Path_236" data-name="Path 236" d="M212.835,4122.207l-.188.042.188-.042Zm0,0" fill="#fff"/>
    <path id="Path_237" data-name="Path 237" d="M210.067,4122.643c-.1.008-.2.016-.3.022.1-.006.2-.014.3-.022Zm0,0" fill="#fff"/>
    <path id="Path_238" data-name="Path 238" d="M227.583,4103.586a19.125,19.125,0,1,0-19.125,19.125c.113,0,.224,0,.337,0v-14.888h-4.109v-4.788h4.109v-3.524c0-4.087,2.494-6.311,6.14-6.311a33.807,33.807,0,0,1,3.683.188v4.271H216.1c-1.984,0-2.368.943-2.368,2.326v3.05h4.743l-.619,4.788h-4.124v14.154a19.136,19.136,0,0,0,13.846-18.386Zm0,0" fill="#fff"/>
    <path id="Path_239" data-name="Path 239" d="M209.722,4122.668q-.3.02-.6.03.3-.011.6-.03Zm0,0" fill="#fff"/>
    <path id="Path_240" data-name="Path 240" d="M209.112,4122.7c-.1,0-.211.006-.317.008.106,0,.212,0,.317-.008Zm0,0" fill="#fff"/>
  </g>
</svg>
