<svg xmlns="http://www.w3.org/2000/svg" width="60.584" height="60.583" viewBox="0 0 60.584 60.583">
  <g id="Group_239" data-name="Group 239" transform="translate(-481.333 -1111)">
    <path id="Path_417" data-name="Path 417" d="M495.009,1154.216H492.1a.9.9,0,1,0,0,1.789h2.914a.9.9,0,1,0,0-1.789Zm0,0" fill="#ffcc02"/>
    <path id="Path_418" data-name="Path 418" d="M541.022,1111H482.228a.9.9,0,0,0-.895.9v43.216a.9.9,0,0,0,.895.894h5.539a.9.9,0,1,0,0-1.789h-4.644v-41.427h57v19.953a3.9,3.9,0,0,0-1.278-.547v-17.233a.9.9,0,0,0-.9-.9h-8.9a.9.9,0,0,0,0,1.79h8.01v16.232H520.983a3.948,3.948,0,0,0-2.863,1.227h-25a.894.894,0,1,0,0,1.789H517.14a3.923,3.923,0,0,0-.119.946v1.75h-23.9a.894.894,0,1,0,0,1.789h23.9v2.7h-23.9a.9.9,0,0,0,0,1.79h23.9v4.005H486.19v-32.224h37.364a.9.9,0,0,0,0-1.79H485.3a.9.9,0,0,0-.895.9v34.014a.9.9,0,0,0,.895.894h31.725v4.346H498.939a.9.9,0,0,0,0,1.789h8.84l-1.318,7.753a7.034,7.034,0,0,0-5.9,6.931.894.894,0,0,0,.894.894h36.5a3.966,3.966,0,0,0,3.963-3.962v-8.563a.9.9,0,0,0-1.79,0v8.563a2.174,2.174,0,0,1-2.173,2.173H520.983a2.176,2.176,0,0,1-2.173-2.173v-31.57a2.177,2.177,0,0,1,2.173-2.173h16.971a2.176,2.176,0,0,1,2.173,2.173v18.278a.9.9,0,0,0,1.79,0V1111.9a.9.9,0,0,0-.9-.9Zm-24,52.79c-.076-.015-.153-.024-.23-.036l-1.32-7.749h1.55Zm-3.365-7.785,1.3,7.654h-6.668l1.3-7.654Zm-11.234,13.789a5.251,5.251,0,0,1,5.164-4.346h8.078a5.272,5.272,0,0,1,1.357.18v1.994a3.951,3.951,0,0,0,.652,2.173Zm0,0" fill="#1b252f"/>
    <path id="Path_419" data-name="Path 419" d="M487.468,1120.166v4.6a.9.9,0,0,0,1.79,0v-4.6a.9.9,0,0,0-1.79,0Zm0,0" fill="#ffcc02"/>
    <path id="Path_420" data-name="Path 420" d="M530.133,1119.862H493.117a.894.894,0,1,0,0,1.789h37.016a.894.894,0,1,0,0-1.789Zm0,0" fill="#ffcc02"/>
    <path id="Path_421" data-name="Path 421" d="M530.133,1124.346H493.117a.9.9,0,0,0,0,1.79h37.016a.9.9,0,0,0,0-1.79Zm0,0" fill="#ffcc02"/>
    <path id="Path_422" data-name="Path 422" d="M530.133,1128.831H493.117a.9.9,0,0,0,0,1.79h37.016a.9.9,0,0,0,0-1.79Zm0,0" fill="#ffcc02"/>
    <path id="Path_423" data-name="Path 423" d="M532.535,1136.946a.9.9,0,1,0,0-1.789H526.4a.9.9,0,1,0,0,1.789Zm0,0" fill="#1b252f"/>
    <path id="Path_424" data-name="Path 424" d="M527.934,1166.726a.9.9,0,0,0,0,1.79H531a.9.9,0,0,0,0-1.79Zm0,0" fill="#ffcc02"/>
    <path id="Path_425" data-name="Path 425" d="M535.476,1151.836a6.008,6.008,0,1,0-6.008,6.007,6.007,6.007,0,0,0,6.008-6.007Zm-6.008,4.218a4.218,4.218,0,1,1,4.217-4.218,4.219,4.219,0,0,1-4.217,4.218Zm0,0" fill="#1b252f"/>
    <path id="Path_426" data-name="Path 426" d="M530.977,1149.585l-2.6,2.6-.414-.413a.894.894,0,1,0-1.264,1.265l1.045,1.046a.9.9,0,0,0,1.265,0l3.236-3.237a.9.9,0,0,0-1.265-1.265Zm0,0" fill="#ffcc02"/>
  </g>
</svg>
