<svg xmlns="http://www.w3.org/2000/svg" width="38.25" height="38.25" viewBox="0 0 38.25 38.25">
  <g id="Group_56" data-name="Group 56" transform="translate(-142 -4084.461)">
    <path id="Path_228" data-name="Path 228" d="M161.125,4084.461a19.125,19.125,0,1,0,19.125,19.125,19.127,19.127,0,0,0-19.125-19.125Zm-5.558,28.911H150.91v-14.013h4.657Zm-2.328-15.926h-.031a2.661,2.661,0,1,1,.031,0Zm19.124,15.926h-4.658v-7.5c0-1.884-.674-3.169-2.359-3.169a2.549,2.549,0,0,0-2.39,1.7,3.191,3.191,0,0,0-.153,1.137v7.825h-4.658s.061-12.7,0-14.013H162.8v1.984a4.624,4.624,0,0,1,4.2-2.313c3.065,0,5.363,2,5.363,6.307Zm0,0" fill="#fff"/>
  </g>
</svg>
