<svg xmlns="http://www.w3.org/2000/svg" width="60.084" height="60.084" viewBox="0 0 60.084 60.084">
  <g id="Group_238" data-name="Group 238" transform="translate(-142 -1111.25)">
    <g id="Group_237" data-name="Group 237">
      <path id="Path_413" data-name="Path 413" d="M152.648,1132.459a1.173,1.173,0,1,0,1.174,1.173,1.173,1.173,0,0,0-1.174-1.173Zm0,0" fill="#ffcc02"/>
      <path id="Path_414" data-name="Path 414" d="M185.528,1146.481a1.173,1.173,0,0,0-1.66,0l-.829.829-2.7-2.7a21.121,21.121,0,1,0-4.979,4.979l2.7,2.7-.829.829a1.173,1.173,0,0,0,0,1.66l14.836,14.834a5.866,5.866,0,1,0,8.3-8.3Zm-5.808,4.149-2.513-2.513c.292-.262.578-.53.854-.807s.545-.561.806-.853l2.513,2.513Zm-29.87-4.979a18.774,18.774,0,1,1,26.551,0,18.764,18.764,0,0,1-26.551,0Zm34.848,3.319,3.319,3.319-4.978,4.977-3.319-3.318Zm14.005,18.983a3.514,3.514,0,0,1-4.977,0l-9.028-9.027,4.978-4.978,9.028,9.029a3.513,3.513,0,0,1,0,4.976Zm0,0" fill="#1b252f"/>
    </g>
    <path id="Path_415" data-name="Path 415" d="M174.742,1120.76a16.428,16.428,0,1,0,0,23.232,16.423,16.423,0,0,0,0-23.232Zm-1.66,21.572a14.081,14.081,0,1,1,0-19.913,14.072,14.072,0,0,1,0,19.913Zm0,0" fill="#ffcc02"/>
    <path id="Path_416" data-name="Path 416" d="M163.126,1120.643a11.73,11.73,0,0,0-11.105,7.943,1.173,1.173,0,0,0,2.222.754,9.381,9.381,0,0,1,8.883-6.35,1.174,1.174,0,0,0,0-2.347Zm0,0" fill="#ffcc02"/>
  </g>
</svg>
